ply 
format ascii 1.0 
comment VCGLIB generated 
element vertex 27 
property float x 
property float y 
property float z 
element face 9 
property list uchar int vertex_indices 
end_header 
-0.500000 -0.500000 0.000000 
-0.500000 0.000000 0.000000 
-0.250000 0.000000 0.000000 
-0.250000 0.000000 0.000000 
-0.500000 0.000000 0.000000 
-0.250000 0.000000 0.000000 
-0.500000 -0.500000 0.000000 
-0.250000 0.000000 0.000000 
0.000000 0.000000 0.000000 
-0.250000 0.000000 0.000000 
-0.250000 0.000000 0.000000 
0.000000 0.000000 0.000000 
-0.500000 -0.500000 0.000000 
0.000000 -0.500000 0.000000 
0.000000 0.000000 0.000000 
0.000000 -0.500000 0.000000 
0.000000 0.000000 0.000000 
0.000000 0.000000 0.000000 
-0.250000 0.000000 0.000000 
0.000000 0.000000 0.000000 
0.000000 0.000000 0.000000 
0.000000 -0.500000 0.000000 
0.000000 0.000000 0.000000 
0.000000 0.000000 0.000000 
-0.250000 0.000000 0.000000 
0.000000 0.000000 0.000000 
0.000000 0.000000 0.000000 
3 0 1 2 
3 3 4 5 
3 6 7 8 
3 9 10 11 
3 12 13 14 
3 15 16 17 
3 18 19 20 
3 21 22 23 
3 24 25 26 
